ply
format ascii 1.0
comment Created by Blender 2.78 (sub 0) - www.blender.org, source file: ''
element vertex 24
property float x
property float y
property float z
property float nx
property float ny
property float nz
property float s
property float t
element face 12
property list uchar uint vertex_indices
end_header
-1.000000 -1.000000 1.000000 -1.000000 0.000000 0.000000 0.141894 0.000226
-1.000000 1.000000 -1.000000 -1.000000 0.000000 0.000000 0.000226 0.999774
-1.000000 -1.000000 -1.000000 -1.000000 0.000000 0.000000 0.000226 0.000226
-1.000000 1.000000 1.000000 0.000000 1.000000 -0.000000 0.710825 0.000226
1.000000 1.000000 -1.000000 0.000000 1.000000 -0.000000 0.852493 0.999774
-1.000000 1.000000 -1.000000 0.000000 1.000000 -0.000000 0.710825 0.999774
1.000000 1.000000 1.000000 1.000000 0.000000 -0.000000 0.710373 0.999774
1.000000 -1.000000 -1.000000 1.000000 0.000000 -0.000000 0.568705 0.000226
1.000000 1.000000 -1.000000 1.000000 0.000000 -0.000000 0.710373 0.000226
1.000000 -1.000000 1.000000 0.000000 -1.000000 0.000000 0.284014 0.999774
-1.000000 -1.000000 -1.000000 0.000000 -1.000000 0.000000 0.142346 0.000226
1.000000 -1.000000 -1.000000 0.000000 -1.000000 0.000000 0.284014 0.000226
1.000000 1.000000 -1.000000 0.000000 0.000000 -1.000000 0.426585 0.999774
-1.000000 -1.000000 -1.000000 0.000000 0.000000 -1.000000 0.568254 0.000226
-1.000000 1.000000 -1.000000 0.000000 0.000000 -1.000000 0.568254 0.999774
-1.000000 1.000000 1.000000 0.000000 0.000000 1.000000 0.284465 0.999774
1.000000 -1.000000 1.000000 0.000000 0.000000 1.000000 0.426134 0.000226
1.000000 1.000000 1.000000 0.000000 0.000000 1.000000 0.426134 0.999774
-1.000000 1.000000 1.000000 -1.000000 0.000000 0.000000 0.141894 0.999774
1.000000 1.000000 1.000000 0.000000 1.000000 -0.000000 0.852493 0.000226
1.000000 -1.000000 1.000000 1.000000 0.000000 0.000000 0.568705 0.999774
-1.000000 -1.000000 1.000000 0.000000 -1.000000 0.000000 0.142346 0.999774
1.000000 -1.000000 -1.000000 0.000000 0.000000 -1.000000 0.426585 0.000226
-1.000000 -1.000000 1.000000 0.000000 -0.000000 1.000000 0.284465 0.000226
3 0 1 2
3 3 4 5
3 6 7 8
3 9 10 11
3 12 13 14
3 15 16 17
3 0 18 1
3 3 19 4
3 6 20 7
3 9 21 10
3 12 22 13
3 15 23 16
